<svg xmlns="http://www.w3.org/2000/svg" viewBox="0 0 32 32">
  <!-- Rounded background -->
  <rect width="32" height="32" rx="7" fill="#78350f"/>
  <!-- Open book left page -->
  <path d="M6 11 C6 10 7 9 9 9 L15 9 L15 23 L9 23 C7 23 6 22 6 21 Z" fill="#fef3c7"/>
  <!-- Open book right page -->
  <path d="M26 11 C26 10 25 9 23 9 L17 9 L17 23 L23 23 C25 23 26 22 26 21 Z" fill="#fde68a"/>
  <!-- Spine -->
  <rect x="15" y="9" width="2" height="14" fill="#92400e"/>
  <!-- Lines left page -->
  <rect x="8" y="13" width="5" height="1.2" rx="0.5" fill="#a16207" opacity="0.55"/>
  <rect x="8" y="16" width="5" height="1.2" rx="0.5" fill="#a16207" opacity="0.55"/>
  <rect x="8" y="19" width="3.5" height="1.2" rx="0.5" fill="#a16207" opacity="0.55"/>
  <!-- Lines right page -->
  <rect x="19" y="13" width="5" height="1.2" rx="0.5" fill="#a16207" opacity="0.55"/>
  <rect x="19" y="16" width="5" height="1.2" rx="0.5" fill="#a16207" opacity="0.55"/>
  <rect x="19" y="19" width="3.5" height="1.2" rx="0.5" fill="#a16207" opacity="0.55"/>
</svg>
